<svg width="47" height="46" viewBox="0 0 47 46" fill="none" xmlns="http://www.w3.org/2000/svg">
<path d="M23.0793 13.1738C17.6403 13.1738 13.2533 17.5609 13.2533 22.9998C13.2533 28.4387 17.6403 32.8258 23.0793 32.8258C28.5182 32.8258 32.9053 28.4387 32.9053 22.9998C32.9053 17.5609 28.5182 13.1738 23.0793 13.1738ZM23.0793 29.388C19.5645 29.388 16.6911 26.5231 16.6911 22.9998C16.6911 19.4765 19.5559 16.6116 23.0793 16.6116C26.6026 16.6116 29.4674 19.4765 29.4674 22.9998C29.4674 26.5231 26.594 29.388 23.0793 29.388ZM35.5991 12.7719C35.5991 14.0461 34.5729 15.0637 33.3072 15.0637C32.033 15.0637 31.0153 14.0375 31.0153 12.7719C31.0153 11.5062 32.0415 10.48 33.3072 10.48C34.5729 10.48 35.5991 11.5062 35.5991 12.7719ZM42.107 15.098C41.9616 12.0279 41.2603 9.3084 39.0112 7.06784C36.7707 4.82727 34.0512 4.12602 30.9811 3.97209C27.817 3.79251 18.333 3.79251 15.1689 3.97209C12.1073 4.11747 9.38788 4.81872 7.13876 7.05928C4.88964 9.29985 4.19695 12.0193 4.04302 15.0894C3.86343 18.2536 3.86343 27.7375 4.04302 30.9016C4.1884 33.9717 4.88964 36.6912 7.13876 38.9318C9.38788 41.1723 12.0988 41.8736 15.1689 42.0275C18.333 42.2071 27.817 42.2071 30.9811 42.0275C34.0512 41.8821 36.7707 41.1809 39.0112 38.9318C41.2518 36.6912 41.953 33.9717 42.107 30.9016C42.2866 27.7375 42.2866 18.2621 42.107 15.098ZM38.0192 34.2967C37.3522 35.9728 36.0609 37.2642 34.3762 37.9397C31.8534 38.9403 25.8671 38.7094 23.0793 38.7094C20.2914 38.7094 14.2966 38.9318 11.7824 37.9397C10.1062 37.2727 8.81491 35.9814 8.13932 34.2967C7.13876 31.7739 7.36966 25.7877 7.36966 22.9998C7.36966 20.2119 7.14731 14.2171 8.13932 11.7029C8.80635 10.0267 10.0977 8.73543 11.7824 8.05984C14.3051 7.05928 20.2914 7.29018 23.0793 7.29018C25.8671 7.29018 31.8619 7.06784 34.3762 8.05984C36.0523 8.72688 37.3436 10.0182 38.0192 11.7029C39.0198 14.2257 38.7889 20.2119 38.7889 22.9998C38.7889 25.7877 39.0198 31.7825 38.0192 34.2967Z" fill="white"/>
</svg>
