<svg width="86" height="15" viewBox="0 0 86 15" fill="none" xmlns="http://www.w3.org/2000/svg">
<path d="M6.82944 1.93419L5.30374 5.02764L1.8902 5.5253C1.27805 5.61409 1.03272 6.36876 1.47665 6.801L3.94627 9.20754L3.36216 12.6071C3.25702 13.2216 3.90421 13.6818 4.44627 13.3944L7.5 11.7893L10.5537 13.3944C11.0958 13.6795 11.743 13.2216 11.6378 12.6071L11.0537 9.20754L13.5234 6.801C13.9673 6.36876 13.722 5.61409 13.1098 5.5253L9.69626 5.02764L8.17056 1.93419C7.8972 1.38279 7.10514 1.37578 6.82944 1.93419Z" fill="#FFC01E"/>
<path d="M24.2847 1.93419L22.6573 5.02764L19.0162 5.5253C18.3632 5.61409 18.1015 6.36876 18.5751 6.801L21.2093 9.20754L20.5863 12.6071C20.4741 13.2216 21.1645 13.6818 21.7427 13.3944L25 11.7893L28.2573 13.3944C28.8355 13.6795 29.5258 13.2216 29.4137 12.6071L28.7906 9.20754L31.4249 6.801C31.8984 6.36876 31.6367 5.61409 30.9838 5.5253L27.3427 5.02764L25.7152 1.93419C25.4237 1.38279 24.5788 1.37578 24.2847 1.93419Z" fill="#FFC01E"/>
<path d="M41.7401 1.93419L40.0109 5.02764L36.1422 5.5253C35.4485 5.61409 35.1704 6.36876 35.6736 6.801L38.4725 9.20754L37.8105 12.6071C37.6913 13.2216 38.4248 13.6818 39.0391 13.3944L42.5 11.7893L45.9609 13.3944C46.5752 13.6795 47.3087 13.2216 47.1896 12.6071L46.5276 9.20754L49.3265 6.801C49.8296 6.36876 49.5516 5.61409 48.8578 5.5253L44.9891 5.02764L43.26 1.93419C42.9502 1.38279 42.0525 1.37578 41.7401 1.93419Z" fill="#FFC01E"/>
<path d="M59.1953 1.93419L57.3645 5.02764L53.2682 5.5253C52.5337 5.61409 52.2393 6.36876 52.772 6.801L55.7355 9.20754L55.0346 12.6071C54.9084 13.2216 55.6851 13.6818 56.3355 13.3944L60 11.7893L63.6645 13.3944C64.3149 13.6795 65.0916 13.2216 64.9654 12.6071L64.2645 9.20754L67.228 6.801C67.7607 6.36876 67.4663 5.61409 66.7318 5.5253L62.6355 5.02764L60.8047 1.93419C60.4766 1.38279 59.5262 1.37578 59.1953 1.93419Z" fill="#FFC01E"/>
<path d="M84.1098 5.52963L80.6964 5.03267L79.171 1.94525C79.0338 1.66936 78.7664 1.52991 78.4989 1.52991C78.233 1.52991 77.9674 1.6675 77.8298 1.94525L76.3039 5.03243L72.8903 5.52893C72.2781 5.61755 72.0328 6.37057 72.4765 6.802L74.946 9.20403L74.3616 12.5967C74.2785 13.0813 74.6654 13.4701 75.0987 13.4701C75.2137 13.4701 75.3319 13.4428 75.4455 13.3826L78.4993 11.781L81.5529 13.3831C81.6663 13.4425 81.7843 13.4696 81.8988 13.4696C82.3325 13.4696 82.7201 13.0822 82.6371 12.5974L82.0534 9.20449L84.5233 6.80293C84.9673 6.3715 84.722 5.61825 84.1098 5.52963V5.52963ZM81.2708 8.40273L80.8482 8.81364L80.948 9.39386L81.4032 12.0396L79.0215 10.7898L78.4996 10.516L78.5003 3.11897L79.6903 5.52776L79.951 6.05551L80.5343 6.1404L83.1982 6.52822L81.2708 8.40273V8.40273Z" fill="#FFC01E"/>
</svg>
