<svg width="47" height="46" viewBox="0 0 47 46" fill="none" xmlns="http://www.w3.org/2000/svg">
<path d="M36.7003 9.40381C33.1151 5.81006 28.3405 3.8335 23.2665 3.8335C12.7933 3.8335 4.27097 12.3558 4.27097 22.829C4.27097 26.1746 5.14374 29.4432 6.80371 32.3268L4.1084 42.1668L14.1795 39.5229C16.9518 41.0374 20.0749 41.8331 23.258 41.8331H23.2665C33.7312 41.8331 42.4417 33.3108 42.4417 22.8376C42.4417 17.7636 40.2855 12.9976 36.7003 9.40381ZM23.2665 38.633C20.4257 38.633 17.6449 37.8714 15.2234 36.4339L14.6501 36.0917L8.6776 37.6575L10.2691 31.8305L9.89263 31.2316C8.30966 28.7159 7.47968 25.8153 7.47968 22.829C7.47968 14.127 14.5645 7.0422 23.2751 7.0422C27.4934 7.0422 31.4551 8.68506 34.4328 11.6713C37.4105 14.6575 39.2416 18.6192 39.233 22.8376C39.233 31.5482 31.9685 38.633 23.2665 38.633ZM31.9257 26.8078C31.4551 26.5682 29.1192 25.4217 28.6828 25.2677C28.2464 25.1051 27.9298 25.0281 27.6132 25.5072C27.2966 25.9864 26.3897 27.0474 26.1073 27.3726C25.8335 27.6892 25.5511 27.7319 25.0805 27.4924C22.2911 26.0976 20.46 25.0024 18.6203 21.845C18.1326 21.0065 19.108 21.0664 20.015 19.2524C20.169 18.9358 20.092 18.662 19.9722 18.4224C19.8524 18.1828 18.9027 15.8469 18.5091 14.8971C18.124 13.973 17.7304 14.1014 17.4395 14.0842C17.1657 14.0671 16.8491 14.0671 16.5325 14.0671C16.2159 14.0671 15.7025 14.1869 15.2661 14.6575C14.8298 15.1367 13.6062 16.2833 13.6062 18.6192C13.6062 20.9552 15.3089 23.2141 15.5399 23.5307C15.7795 23.8473 18.8856 28.6389 23.6516 30.7011C26.6635 32.0017 27.8443 32.1129 29.3502 31.8904C30.2658 31.7535 32.1568 30.7438 32.5504 29.6315C32.944 28.5191 32.944 27.5694 32.8242 27.3726C32.7129 27.1586 32.3963 27.0389 31.9257 26.8078Z" fill="white"/>
</svg>
